<?xml version="1.0" encoding="utf-8"?>
<!-- Generator: Adobe Illustrator 21.0.0, SVG Export Plug-In . SVG Version: 6.00 Build 0)  -->
<svg version="1.1" id="Layer_1" xmlns="http://www.w3.org/2000/svg" xmlns:xlink="http://www.w3.org/1999/xlink" x="0px" y="0px"
	 viewBox="0 0 45.4 47" style="enable-background:new 0 0 45.4 47;" xml:space="preserve">
<style type="text/css">
	.st0{fill:none;stroke:#04326A;stroke-width:2;stroke-linejoin:round;}
</style>
<title>development</title>
<g id="Layer_2">
	<g id="icons">
		<path class="st0" d="M17,29h6c-0.6,0.5-1,1.2-1,2c0,1.7,1.3,3,3,3s3-1.3,3-3c-0.1-0.8-0.4-1.5-1-2h6v14c0,1.7-1.3,3-3,3H4
			c-1.7,0-3-1.3-3-3V16c0-1.7,1.3-3,3-3h13v6c0.5-0.6,1.2-1,2-1c1.7,0,3,1.3,3,3s-1.3,3-3,3c-0.8,0-1.5-0.4-2-1V29"/>
		<path class="st0" d="M23,12.3l4.2-4.2c-0.1,0.8,0.2,1.5,0.7,2.1c1.2,1.1,3.1,1.1,4.2-0.1c1.1-1.2,1.1-2.9,0-4.1
			c-0.6-0.5-1.3-0.8-2.1-0.7L34.3,1l9.2,9.2c1.2,1.2,1.2,3.1,0,4.2l-9.2,9.2L23,12.3z"/>
		<path class="st0" d="M17,46v-7c-0.5,0.6-1.2,1-2,1c-1.7,0-3-1.3-3-3s1.3-3,3-3c0.8,0,1.5,0.4,2,1v-6"/>
		<path class="st0" d="M1,29h6c-0.6-0.5-1-1.2-1-2c0-1.7,1.3-3,3-3s3,1.3,3,3c0,0.8-0.4,1.5-1,2h6"/>
	</g>
</g>
</svg>
