<?xml version="1.0" encoding="utf-8"?>
<!-- Generator: Adobe Illustrator 21.0.0, SVG Export Plug-In . SVG Version: 6.00 Build 0)  -->
<svg version="1.1" id="Layer_1" xmlns="http://www.w3.org/2000/svg" xmlns:xlink="http://www.w3.org/1999/xlink" x="0px" y="0px"
	 viewBox="0 0 48 44.3" style="enable-background:new 0 0 48 44.3;" xml:space="preserve">
<style type="text/css">
	.st0{fill:none;stroke:#04326A;stroke-width:2;stroke-miterlimit:10;}
</style>
<title>Investor</title>
<g id="Layer_2">
	<g id="icons">
		<path class="st0" d="M32,21v-4c0-2.8-5.7-4-8.5-4S15,14.2,15,17v4"/>
		<path class="st0" d="M23.5,10c2,0,3.5-1.7,3.5-3.6c0-0.1,0-0.1,0-0.2V4.8c0.2-1.9-1.2-3.7-3.1-3.9S20.2,2.2,20,4.1
			c0,0.2,0,0.5,0,0.7v1.3c-0.2,2,1.3,3.7,3.3,3.9C23.4,10,23.4,10,23.5,10z"/>
		<path class="st0" d="M8.5,13c-2,0-3.6-1.7-3.5-3.6c0-0.1,0-0.2,0-0.3V7.8C4.9,5.8,6.4,4.1,8.3,4c0.1,0,0.1,0,0.2,0
			c2,0,3.5,1.7,3.5,3.7c0,0.1,0,0.1,0,0.2v1.3c0.2,2-1.3,3.7-3.2,3.9C8.7,13,8.6,13,8.5,13z"/>
		<path class="st0" d="M15,44l-3-9H6c-2.8,0-5-2.2-5-5V19c0-1.7,1.3-3,3-3h3l5,5h6c0,0,0.5,4-3,4H9l-4-4"/>
		<path class="st0" d="M8,24v5h4.3c1.6,0,3.1,0.5,3.7,2l4,13"/>
		<path class="st0" d="M40.5,13c2,0,3.6-1.7,3.5-3.6c0-0.1,0-0.2,0-0.3V7.8c0.2-1.9-1.2-3.7-3.1-3.9c-1.9-0.2-3.7,1.2-3.9,3.1
			c0,0.2,0,0.5,0,0.7v1.3c-0.2,2,1.3,3.7,3.2,3.9C40.3,13,40.4,13,40.5,13z"/>
		<path class="st0" d="M33,44l3-9h6c2.8,0,5-2.2,5-5V19c0-1.7-1.3-3-3-3h-3l-5,5h-6c0,0-0.5,4,3,4h6l4-4"/>
		<path class="st0" d="M40,24v5h-4.3c-1.6,0-3.2,0.5-3.7,2l-4,13"/>
		<line class="st0" x1="11" y1="25" x2="37" y2="25"/>
	</g>
</g>
</svg>
