<?xml version="1.0" encoding="utf-8"?>
<!-- Generator: Adobe Illustrator 21.0.0, SVG Export Plug-In . SVG Version: 6.00 Build 0)  -->
<svg version="1.1" id="Layer_1" xmlns="http://www.w3.org/2000/svg" xmlns:xlink="http://www.w3.org/1999/xlink" x="0px" y="0px"
	 viewBox="0 0 208 376" style="enable-background:new 0 0 208 376;" xml:space="preserve">
<style type="text/css">
	.st0{fill:none;stroke:#04326A;stroke-width:16;stroke-linejoin:round;}
	.st1{fill:none;stroke:#04326A;stroke-width:16;stroke-miterlimit:10;}
</style>
<title>Asset 2</title>
<g id="Layer_2">
	<g id="Large_Preview">
		<path class="st0" d="M128,88c18.6,0,32-13.1,32-32V40c0-18.9-13.4-32-32-32S96,21.1,96,40v16C96,74.9,109.3,88,128,88z"/>
		<line class="st0" x1="80" y1="168" x2="80" y2="248"/>
		<line class="st0" x1="168" y1="168" x2="168" y2="376"/>
		<line class="st0" x1="80" y1="320" x2="80" y2="376"/>
		<line class="st0" x1="128" y1="248" x2="128" y2="376"/>
		<rect x="8" y="248" class="st0" width="88" height="72"/>
		<path class="st1" d="M168,264h8c17.2,0,24-14.8,24-32v-72c0-35.9-19.3-48-48-48h-48c-40,0-56,21.6-56,48v88"/>
	</g>
</g>
</svg>
