<?xml version="1.0" encoding="utf-8"?>
<!-- Generator: Adobe Illustrator 21.0.0, SVG Export Plug-In . SVG Version: 6.00 Build 0)  -->
<svg version="1.1" id="Layer_1" xmlns="http://www.w3.org/2000/svg" xmlns:xlink="http://www.w3.org/1999/xlink" x="0px" y="0px"
	 viewBox="0 0 34 48" style="enable-background:new 0 0 34 48;" xml:space="preserve">
<style type="text/css">
	.st0{fill:none;stroke:#04326A;stroke-width:2;stroke-linejoin:round;}
</style>
<title>tourism</title>
<g id="Layer_2">
	<g id="icons">
		<path class="st0" d="M24,16.6C31.9,20.5,35.3,30,31.4,38S17.9,49.2,10,45.4S-1.3,31.9,2.6,24c1.6-3.2,4.2-5.8,7.4-7.4"/>
		<path class="st0" d="M17,26c2.3-7.5,9-9.1,9-16c-0.1-4.9-4.1-8.9-9-9c-4.9,0.1-8.9,4.1-9,9C8,16.9,14.7,18.5,17,26z"/>
		<ellipse class="st0" cx="17" cy="10" rx="3" ry="3"/>
		<polyline class="st0" points="21,25 23,23 31,23 		"/>
		<polyline class="st0" points="17,28 17,29 22,29 26,33 26,33 28,33 30,31 33,31 		"/>
		<polygon class="st0" points="19,42 19,39 17,37 14,37 14,34 16,32 20,32 24,36 24,40 21,43 		"/>
		<path class="st0" d="M4,23l1,1h1c1.7,0,3,1.3,3,3v2H6l-2,2v1l-1,1H1"/>
		<polyline class="st0" points="8,44 8,41 10,39 10,38 8,36 2,36 		"/>
	</g>
</g>
</svg>
