<?xml version="1.0" encoding="utf-8"?>
<!-- Generator: Adobe Illustrator 21.0.0, SVG Export Plug-In . SVG Version: 6.00 Build 0)  -->
<svg version="1.1" id="Layer_1" xmlns="http://www.w3.org/2000/svg" xmlns:xlink="http://www.w3.org/1999/xlink" x="0px" y="0px"
	 viewBox="0 0 48 47" style="enable-background:new 0 0 48 47;" xml:space="preserve">
<style type="text/css">
	.st0{fill:none;stroke:#04326A;stroke-width:2;stroke-linejoin:round;}
</style>
<title>green</title>
<g id="Layer_2">
	<g id="icons">
		<line class="st0" x1="30" y1="23" x2="30" y2="47"/>
		<line class="st0" x1="26" y1="31" x2="30" y2="35"/>
		<line class="st0" x1="34" y1="31" x2="30" y2="35"/>
		<path class="st0" d="M11,10c0,0,10,15.5,10,21c0,5.5-4.5,10-10,10S1,36.5,1,31C1,25.5,11,10,11,10z"/>
		<line class="st0" x1="11" y1="22" x2="11" y2="47"/>
		<line class="st0" x1="6" y1="30" x2="11" y2="35"/>
		<line class="st0" x1="15" y1="26" x2="11" y2="30"/>
		<path class="st0" d="M21,40h17.6c4.6,0,8.3-3.7,8.3-8.3s-3.7-8.3-8.3-8.3c0,0,0,0,0,0h0C38,19.1,34.3,16,30,16
			c-4.2,0-7.6,3.2-8,7.4"/>
		<path class="st0" d="M16.7,14C19.5,8.5,23,3.3,23,3.3s3.5,5.3,6.3,10.8"/>
		<circle class="st0" cx="39.5" cy="5.5" r="4.5"/>
	</g>
</g>
</svg>
